<svg width="400" height="400" viewBox="0 0 400 400" fill="none" xmlns="http://www.w3.org/2000/svg">
<path d="M216.667 366.667C213.061 366.667 209.552 365.497 206.667 363.333C203.13 360.681 200.793 356.733 200.168 352.357C199.542 347.981 200.681 343.536 203.333 340C236.005 294.482 252.44 239.309 250 183.333C250 178.913 251.756 174.674 254.882 171.548C258.007 168.422 262.246 166.667 266.667 166.667C271.087 166.667 275.326 168.422 278.452 171.548C281.577 174.674 283.333 178.913 283.333 183.333C285.938 246.545 267.148 308.788 230 360C228.448 362.07 226.435 363.75 224.12 364.907C221.806 366.064 219.254 366.667 216.667 366.667ZM114.667 298C133.333 279.166 150 213.167 150 183.333C149.994 174.554 152.301 165.927 156.687 158.322C161.073 150.717 167.384 144.4 174.986 140.008C182.588 135.616 191.212 133.303 199.992 133.301C208.772 133.3 217.397 135.61 225 140C226.897 141.206 229.018 142.015 231.236 142.38C233.454 142.745 235.723 142.657 237.906 142.123C240.09 141.588 242.142 140.617 243.941 139.268C245.739 137.92 247.246 136.221 248.371 134.275C249.496 132.329 250.215 130.176 250.486 127.944C250.757 125.713 250.574 123.45 249.948 121.291C249.322 119.132 248.265 117.122 246.842 115.382C245.419 113.642 243.658 112.208 241.667 111.167C228.999 103.853 214.628 100.002 200.001 100.002C185.373 100.002 171.002 103.852 158.334 111.166C145.666 118.48 135.146 128.999 127.832 141.667C120.518 154.335 116.667 168.705 116.667 183.333C116.667 211 100 265.166 91 274.333C89.4379 275.883 88.198 277.726 87.3518 279.757C86.5057 281.788 86.0701 283.966 86.0701 286.167C86.0701 288.367 86.5057 290.545 87.3518 292.576C88.198 294.607 89.4379 296.45 91 298C92.5574 299.545 94.4043 300.767 96.4349 301.596C98.4656 302.425 100.64 302.846 102.833 302.833C105.027 302.846 107.201 302.425 109.232 301.596C111.262 300.767 113.109 299.545 114.667 298Z" fill="#2CA9BC"/>
<path d="M300 333.333C296.723 333.371 293.517 332.38 290.833 330.5C287.18 328.056 284.64 324.268 283.766 319.961C282.891 315.653 283.755 311.174 286.167 307.5C308.217 269.968 318.818 226.81 316.667 183.333C316.667 152.391 304.375 122.717 282.496 100.838C260.617 78.9583 230.942 66.6667 200 66.6667C185.029 66.6179 170.193 69.5058 156.333 75.1667C154.309 75.9984 152.14 76.4232 149.952 76.4168C147.763 76.4104 145.597 75.973 143.577 75.1296C141.557 74.2861 139.724 73.0531 138.181 71.5009C136.637 69.9488 135.415 68.1079 134.583 66.0833C133.752 64.0588 133.327 61.8902 133.333 59.7015C133.34 57.5128 133.777 55.3468 134.62 53.3271C135.464 51.3074 136.697 49.4737 138.249 47.9305C139.801 46.3874 141.642 45.165 143.667 44.3333C161.548 37.0299 180.685 33.2931 200 33.3333C239.783 33.3333 277.936 49.1369 306.066 77.2673C334.197 105.398 350 143.551 350 183.333C352.295 233.364 339.71 282.953 313.833 325.833C312.324 328.126 310.271 330.01 307.858 331.319C305.444 332.627 302.745 333.319 300 333.333ZM71.5 238.833C78.4009 221.089 82.3966 202.349 83.3334 183.333C83.3742 154.975 93.7426 127.602 112.5 106.333C113.956 104.692 115.073 102.78 115.79 100.706C116.506 98.6326 116.808 96.4382 116.676 94.2483C116.544 92.0583 115.983 89.9158 115.023 87.9429C114.064 85.97 112.725 84.2055 111.083 82.75C109.442 81.2945 107.53 80.1766 105.456 79.4601C103.383 78.7436 101.188 78.4425 98.9983 78.5741C96.8084 78.7056 94.6658 79.2672 92.693 80.2268C90.7201 81.1864 88.9555 82.5251 87.5 84.1667C63.3455 111.555 50.012 146.815 50 183.333C49.0049 198.597 45.6309 213.611 40.0001 227.833C39.1254 229.938 38.6918 232.2 38.7259 234.479C38.76 236.758 39.2611 239.005 40.1984 241.083C41.1356 243.16 42.489 245.024 44.1749 246.557C45.8608 248.091 47.8434 249.263 50 250C51.7286 250.532 53.5248 250.813 55.3334 250.833C58.968 250.87 62.5148 249.717 65.4335 247.55C68.3521 245.384 70.4825 242.323 71.5 238.833ZM142.5 363.833C203.5 323.333 216.667 209.333 216.667 183.333C216.667 178.913 214.911 174.674 211.785 171.548C208.66 168.423 204.42 166.667 200 166.667C195.58 166.667 191.341 168.423 188.215 171.548C185.089 174.674 183.333 178.913 183.333 183.333C183.333 216.667 166.667 308 124.167 336.167C121.211 338.153 118.969 341.033 117.77 344.386C116.57 347.739 116.476 351.387 117.501 354.798C118.526 358.208 120.616 361.2 123.465 363.336C126.314 365.472 129.773 366.639 133.333 366.667C136.61 366.704 139.816 365.713 142.5 363.833Z" fill="black"/>
<path d="M300 333.333C296.723 333.371 293.517 332.38 290.833 330.5C287.18 328.056 284.64 324.268 283.766 319.961C282.891 315.653 283.755 311.174 286.167 307.5C308.217 269.968 318.818 226.81 316.667 183.333C316.667 152.391 304.375 122.717 282.496 100.838C260.617 78.9583 230.942 66.6667 200 66.6667C185.029 66.6179 170.193 69.5058 156.333 75.1667C154.309 75.9984 152.14 76.4232 149.952 76.4168C147.763 76.4104 145.597 75.973 143.577 75.1296C141.557 74.2861 139.724 73.0531 138.181 71.5009C136.637 69.9488 135.415 68.1079 134.583 66.0833C133.752 64.0588 133.327 61.8902 133.333 59.7015C133.34 57.5128 133.777 55.3468 134.62 53.3271C135.464 51.3074 136.697 49.4737 138.249 47.9305C139.801 46.3874 141.642 45.165 143.667 44.3333C161.548 37.0299 180.685 33.2931 200 33.3333C239.783 33.3333 277.936 49.1369 306.066 77.2673C334.197 105.398 350 143.551 350 183.333C352.295 233.364 339.71 282.953 313.833 325.833C312.324 328.126 310.271 330.01 307.858 331.319C305.444 332.627 302.745 333.319 300 333.333ZM71.5 238.833C78.4009 221.089 82.3966 202.349 83.3334 183.333C83.3742 154.975 93.7426 127.602 112.5 106.333C113.956 104.692 115.073 102.78 115.79 100.706C116.506 98.6326 116.808 96.4382 116.676 94.2483C116.544 92.0583 115.983 89.9158 115.023 87.9429C114.064 85.97 112.725 84.2055 111.083 82.75C109.442 81.2945 107.53 80.1766 105.456 79.4601C103.383 78.7436 101.188 78.4425 98.9983 78.5741C96.8084 78.7056 94.6658 79.2672 92.693 80.2268C90.7201 81.1864 88.9555 82.5251 87.5 84.1667C63.3455 111.555 50.012 146.815 50 183.333C49.0049 198.597 45.6309 213.611 40.0001 227.833C39.1254 229.938 38.6918 232.2 38.7259 234.479C38.76 236.758 39.2611 239.005 40.1984 241.083C41.1356 243.16 42.489 245.024 44.1749 246.557C45.8608 248.091 47.8434 249.263 50 250C51.7286 250.532 53.5248 250.813 55.3334 250.833C58.968 250.87 62.5148 249.717 65.4335 247.55C68.3521 245.384 70.4825 242.323 71.5 238.833ZM142.5 363.833C203.5 323.333 216.667 209.333 216.667 183.333C216.667 178.913 214.911 174.674 211.785 171.548C208.66 168.423 204.42 166.667 200 166.667C195.58 166.667 191.341 168.423 188.215 171.548C185.089 174.674 183.333 178.913 183.333 183.333C183.333 216.667 166.667 308 124.167 336.167C121.211 338.153 118.969 341.033 117.77 344.386C116.57 347.739 116.476 351.387 117.501 354.798C118.526 358.208 120.616 361.2 123.465 363.336C126.314 365.472 129.773 366.639 133.333 366.667C136.61 366.704 139.816 365.713 142.5 363.833Z" fill="black"/>
</svg>
