<svg width="335" height="51" viewBox="0 0 335 51" fill="none" xmlns="http://www.w3.org/2000/svg">
<path d="M24.6306 44.1693C24.2207 44.1693 23.8218 44.0364 23.4938 43.7904C23.0918 43.4889 22.8261 43.0401 22.755 42.5426C22.6839 42.0452 22.8134 41.5399 23.1149 41.1379C26.829 35.9635 28.6973 29.6914 28.4199 23.3281C28.4199 22.8256 28.6196 22.3436 28.9749 21.9883C29.3302 21.633 29.8121 21.4334 30.3146 21.4334C30.8171 21.4334 31.299 21.633 31.6543 21.9883C32.0097 22.3436 32.2093 22.8256 32.2093 23.3281C32.5053 30.514 30.3693 37.5898 26.1463 43.4115C25.9699 43.6468 25.741 43.8378 25.4779 43.9693C25.2148 44.1009 24.9248 44.1693 24.6306 44.1693ZM13.0353 36.3633C15.1573 34.2224 17.052 26.7195 17.052 23.3281C17.0513 22.33 17.3135 21.3494 17.8121 20.4848C18.3107 19.6202 19.0282 18.9021 19.8924 18.4028C20.7566 17.9035 21.737 17.6406 22.735 17.6404C23.7331 17.6403 24.7136 17.9029 25.5779 18.4019C25.7936 18.539 26.0347 18.6311 26.2869 18.6725C26.539 18.714 26.797 18.704 27.0451 18.6433C27.2933 18.5825 27.5267 18.4721 27.7311 18.3188C27.9355 18.1655 28.1068 17.9724 28.2347 17.7512C28.3626 17.5299 28.4444 17.2851 28.4752 17.0315C28.506 16.7778 28.4852 16.5205 28.414 16.2751C28.3428 16.0297 28.2227 15.8012 28.0609 15.6034C27.8992 15.4056 27.699 15.2426 27.4726 15.1242C26.0325 14.2927 24.3989 13.855 22.736 13.855C21.0731 13.855 19.4395 14.2927 17.9994 15.1241C16.5593 15.9555 15.3634 17.1514 14.5319 18.5915C13.7004 20.0316 13.2627 21.6652 13.2626 23.3281C13.2626 26.4732 11.368 32.6308 10.3449 33.6729C10.1673 33.849 10.0263 34.0586 9.93014 34.2895C9.83395 34.5204 9.78442 34.768 9.78442 35.0181C9.78442 35.2682 9.83395 35.5159 9.93014 35.7468C10.0263 35.9776 10.1673 36.1872 10.3449 36.3633C10.5219 36.5389 10.7319 36.6779 10.9627 36.7721C11.1935 36.8664 11.4407 36.9142 11.6901 36.9128C11.9394 36.9142 12.1866 36.8664 12.4174 36.7721C12.6483 36.6779 12.8582 36.5389 13.0353 36.3633Z" fill="#2CA9BC"/>
<path d="M34.104 40.3798C33.7315 40.3841 33.367 40.2714 33.0619 40.0577C32.6466 39.7799 32.3578 39.3493 32.2584 38.8596C32.1591 38.3699 32.2572 37.8608 32.5314 37.4431C35.038 33.1765 36.2432 28.2703 35.9986 23.3279C35.9986 19.8104 34.6013 16.437 32.1141 13.9498C29.6269 11.4625 26.2535 10.0652 22.736 10.0652C21.034 10.0597 19.3476 10.388 17.772 11.0315C17.5418 11.1261 17.2953 11.1744 17.0465 11.1736C16.7977 11.1729 16.5514 11.1232 16.3218 11.0273C16.0922 10.9314 15.8838 10.7912 15.7084 10.6148C15.5329 10.4384 15.394 10.2291 15.2994 9.99893C15.2049 9.76878 15.1566 9.52226 15.1573 9.27345C15.158 9.02463 15.2078 8.7784 15.3036 8.5488C15.3995 8.31921 15.5397 8.11075 15.7161 7.93532C15.8926 7.75989 16.1019 7.62094 16.332 7.52639C18.3648 6.69614 20.5402 6.27134 22.736 6.27592C27.2584 6.27592 31.5957 8.07246 34.7935 11.2703C37.9914 14.4682 39.7879 18.8054 39.7879 23.3279C40.0489 29.0154 38.6182 34.6526 35.6765 39.5272C35.5049 39.7879 35.2715 40.0021 34.9972 40.1508C34.7229 40.2995 34.416 40.3782 34.104 40.3798ZM8.12813 29.6371C8.91263 27.62 9.36685 25.4896 9.47334 23.3279C9.47798 20.1041 10.6567 16.9924 12.789 14.5745C12.9545 14.3879 13.0815 14.1706 13.163 13.9348C13.2445 13.6991 13.2787 13.4497 13.2637 13.2007C13.2488 12.9518 13.1849 12.7082 13.0758 12.4839C12.9668 12.2596 12.8146 12.059 12.628 11.8936C12.4413 11.7281 12.224 11.601 11.9883 11.5196C11.7525 11.4381 11.5031 11.4039 11.2541 11.4189C11.0052 11.4338 10.7616 11.4977 10.5373 11.6068C10.3131 11.7158 10.1125 11.868 9.94701 12.0546C7.20112 15.1682 5.68538 19.1765 5.68402 23.3279C5.57089 25.063 5.18733 26.7699 4.54722 28.3866C4.44779 28.6259 4.39849 28.883 4.40237 29.1421C4.40625 29.4011 4.46322 29.6566 4.56977 29.8928C4.67631 30.129 4.83017 30.3408 5.02182 30.5152C5.21347 30.6895 5.43885 30.8227 5.68402 30.9065C5.88052 30.9671 6.08471 30.999 6.29031 31.0013C6.70349 31.0054 7.1067 30.8743 7.43849 30.628C7.77027 30.3818 8.01246 30.0338 8.12813 29.6371ZM16.1994 43.8471C23.1339 39.243 24.6306 26.2836 24.6306 23.3279C24.6306 22.8254 24.431 22.3435 24.0757 21.9881C23.7204 21.6328 23.2385 21.4332 22.736 21.4332C22.2335 21.4332 21.7516 21.6328 21.3963 21.9881C21.0409 22.3435 20.8413 22.8254 20.8413 23.3279C20.8413 27.1172 18.9467 37.5 14.1153 40.7019C13.7793 40.9277 13.5244 41.2551 13.388 41.6363C13.2517 42.0174 13.241 42.4322 13.3575 42.8199C13.474 43.2076 13.7116 43.5477 14.0355 43.7905C14.3594 44.0333 14.7525 44.166 15.1573 44.1692C15.5298 44.1734 15.8943 44.0608 16.1994 43.8471Z" fill="black"/>
<path d="M34.104 40.3798C33.7315 40.3841 33.367 40.2714 33.0619 40.0577C32.6466 39.7799 32.3578 39.3493 32.2584 38.8596C32.1591 38.3699 32.2572 37.8608 32.5314 37.4431C35.038 33.1765 36.2432 28.2703 35.9986 23.3279C35.9986 19.8104 34.6013 16.437 32.1141 13.9498C29.6269 11.4625 26.2535 10.0652 22.736 10.0652C21.034 10.0597 19.3476 10.388 17.772 11.0315C17.5418 11.1261 17.2953 11.1744 17.0465 11.1736C16.7977 11.1729 16.5514 11.1232 16.3218 11.0273C16.0922 10.9314 15.8838 10.7912 15.7084 10.6148C15.5329 10.4384 15.394 10.2291 15.2994 9.99893C15.2049 9.76878 15.1566 9.52226 15.1573 9.27345C15.158 9.02463 15.2078 8.7784 15.3036 8.5488C15.3995 8.31921 15.5397 8.11075 15.7161 7.93532C15.8926 7.75989 16.1019 7.62094 16.332 7.52639C18.3648 6.69614 20.5402 6.27134 22.736 6.27592C27.2584 6.27592 31.5957 8.07246 34.7935 11.2703C37.9914 14.4682 39.7879 18.8054 39.7879 23.3279C40.0489 29.0154 38.6182 34.6526 35.6765 39.5272C35.5049 39.7879 35.2715 40.0021 34.9972 40.1508C34.7229 40.2995 34.416 40.3782 34.104 40.3798ZM8.12813 29.6371C8.91263 27.62 9.36685 25.4896 9.47334 23.3279C9.47798 20.1041 10.6567 16.9924 12.789 14.5745C12.9545 14.3879 13.0815 14.1706 13.163 13.9348C13.2445 13.6991 13.2787 13.4497 13.2637 13.2007C13.2488 12.9518 13.1849 12.7082 13.0758 12.4839C12.9668 12.2596 12.8146 12.059 12.628 11.8936C12.4413 11.7281 12.224 11.601 11.9883 11.5196C11.7525 11.4381 11.5031 11.4039 11.2541 11.4189C11.0052 11.4338 10.7616 11.4977 10.5373 11.6068C10.3131 11.7158 10.1125 11.868 9.94701 12.0546C7.20112 15.1682 5.68538 19.1765 5.68402 23.3279C5.57089 25.063 5.18733 26.7699 4.54722 28.3866C4.44779 28.6259 4.39849 28.883 4.40237 29.1421C4.40625 29.4011 4.46322 29.6566 4.56977 29.8928C4.67631 30.129 4.83017 30.3408 5.02182 30.5152C5.21347 30.6895 5.43885 30.8227 5.68402 30.9065C5.88052 30.9671 6.08471 30.999 6.29031 31.0013C6.70349 31.0054 7.1067 30.8743 7.43849 30.628C7.77027 30.3818 8.01246 30.0338 8.12813 29.6371ZM16.1994 43.8471C23.1339 39.243 24.6306 26.2836 24.6306 23.3279C24.6306 22.8254 24.431 22.3435 24.0757 21.9881C23.7204 21.6328 23.2385 21.4332 22.736 21.4332C22.2335 21.4332 21.7516 21.6328 21.3963 21.9881C21.0409 22.3435 20.8413 22.8254 20.8413 23.3279C20.8413 27.1172 18.9467 37.5 14.1153 40.7019C13.7793 40.9277 13.5244 41.2551 13.388 41.6363C13.2517 42.0174 13.241 42.4322 13.3575 42.8199C13.474 43.2076 13.7116 43.5477 14.0355 43.7905C14.3594 44.0333 14.7525 44.166 15.1573 44.1692C15.5298 44.1734 15.8943 44.0608 16.1994 43.8471Z" fill="white"/>
<path d="M70.3677 20.1186C69.7084 18.7317 68.7535 17.6631 67.503 16.9128C66.2525 16.1398 64.7974 15.7533 63.1377 15.7533C61.478 15.7533 59.9774 16.1398 58.636 16.9128C57.3173 17.6631 56.2714 18.7544 55.4984 20.1868C54.7481 21.5964 54.373 23.2334 54.373 25.0977C54.373 26.9621 54.7481 28.5991 55.4984 30.0087C56.2714 31.4183 57.3173 32.5096 58.636 33.2827C59.9774 34.033 61.478 34.4081 63.1377 34.4081C65.4568 34.4081 67.3666 33.7147 68.8672 32.3278C70.3677 30.9409 71.2431 29.0652 71.4932 26.7006H62.0123V24.1769H74.8012V26.5642C74.6194 28.5195 74.0055 30.3156 72.9596 31.9526C71.9138 33.5669 70.5383 34.8515 68.8331 35.8064C67.1279 36.7385 65.2294 37.2046 63.1377 37.2046C60.9323 37.2046 58.9202 36.6931 57.1013 35.6699C55.2824 34.6241 53.8387 33.1804 52.7701 31.3387C51.7243 29.4971 51.2013 27.4168 51.2013 25.0977C51.2013 22.7787 51.7243 20.6983 52.7701 18.8567C53.8387 16.9924 55.2824 15.5486 57.1013 14.5255C58.9202 13.4797 60.9323 12.9567 63.1377 12.9567C65.6614 12.9567 67.8895 13.582 69.8221 14.8324C71.7774 16.0829 73.1984 17.845 74.0851 20.1186H70.3677ZM87.0555 37.3069C85.3048 37.3069 83.7133 36.9091 82.2809 36.1133C80.8713 35.3175 79.7572 34.1921 78.9387 32.737C78.143 31.2592 77.7451 29.554 77.7451 27.6214C77.7451 25.7116 78.1544 24.0291 78.9729 22.574C79.8141 21.0962 80.9509 19.9708 82.3832 19.1978C83.8156 18.402 85.4185 18.0041 87.1919 18.0041C88.9653 18.0041 90.5682 18.402 92.0006 19.1978C93.4329 19.9708 94.5583 21.0848 95.3768 22.5399C96.2181 23.995 96.6387 25.6889 96.6387 27.6214C96.6387 29.554 96.2067 31.2592 95.3427 32.737C94.5015 34.1921 93.3533 35.3175 91.8982 36.1133C90.4431 36.9091 88.8289 37.3069 87.0555 37.3069ZM87.0555 34.5786C88.1695 34.5786 89.2154 34.3172 90.193 33.7942C91.1707 33.2713 91.9551 32.4869 92.5462 31.4411C93.1601 30.3952 93.467 29.122 93.467 27.6214C93.467 26.1208 93.1715 24.8476 92.5803 23.8018C91.9892 22.7559 91.2162 21.9829 90.2613 21.4827C89.3063 20.9598 88.2719 20.6983 87.1578 20.6983C86.021 20.6983 84.9751 20.9598 84.0202 21.4827C83.0881 21.9829 82.3378 22.7559 81.7694 23.8018C81.201 24.8476 80.9168 26.1208 80.9168 27.6214C80.9168 29.1447 81.1896 30.4293 81.7353 31.4752C82.3037 32.521 83.054 33.3054 83.9861 33.8283C84.9183 34.3285 85.9414 34.5786 87.0555 34.5786ZM116.612 20.1868C116.612 22.1648 115.93 23.8131 114.565 25.1318C113.224 26.4278 111.166 27.0758 108.393 27.0758H103.823V37H100.719V13.2296H108.393C111.075 13.2296 113.11 13.8775 114.497 15.1735C115.907 16.4694 116.612 18.1405 116.612 20.1868ZM108.393 24.518C110.12 24.518 111.394 24.1428 112.212 23.3925C113.031 22.6422 113.44 21.5737 113.44 20.1868C113.44 17.2538 111.757 15.7874 108.393 15.7874H103.823V24.518H108.393ZM119.309 27.5873C119.309 25.6775 119.696 24.0064 120.469 22.574C121.242 21.1189 122.299 19.9935 123.64 19.1978C125.005 18.402 126.517 18.0041 128.176 18.0041C129.813 18.0041 131.234 18.3565 132.439 19.0613C133.644 19.7661 134.542 20.6529 135.133 21.7214V18.311H138.271V37H135.133V33.5214C134.52 34.6127 133.599 35.5222 132.371 36.2497C131.166 36.9545 129.756 37.3069 128.142 37.3069C126.482 37.3069 124.982 36.8977 123.64 36.0792C122.299 35.2607 121.242 34.1125 120.469 32.6347C119.696 31.1569 119.309 29.4744 119.309 27.5873ZM135.133 27.6214C135.133 26.2118 134.849 24.9841 134.281 23.9382C133.712 22.8923 132.939 22.0966 131.962 21.5509C131.007 20.9825 129.95 20.6983 128.79 20.6983C127.631 20.6983 126.573 20.9712 125.618 21.5168C124.664 22.0625 123.902 22.8582 123.334 23.9041C122.765 24.9499 122.481 26.1777 122.481 27.5873C122.481 29.0197 122.765 30.2702 123.334 31.3387C123.902 32.3846 124.664 33.1917 125.618 33.7601C126.573 34.3058 127.631 34.5786 128.79 34.5786C129.95 34.5786 131.007 34.3058 131.962 33.7601C132.939 33.1917 133.712 32.3846 134.281 31.3387C134.849 30.2702 135.133 29.031 135.133 27.6214ZM150.132 37.3069C148.699 37.3069 147.415 37.0682 146.278 36.5908C145.141 36.0906 144.243 35.4085 143.584 34.5445C142.924 33.6578 142.561 32.6461 142.492 31.5093H145.698C145.789 32.4414 146.221 33.2031 146.994 33.7942C147.79 34.3854 148.824 34.6809 150.098 34.6809C151.28 34.6809 152.212 34.4195 152.894 33.8965C153.576 33.3736 153.917 32.7143 153.917 31.9185C153.917 31.1 153.554 30.4975 152.826 30.111C152.098 29.7018 150.973 29.3039 149.45 28.9174C148.063 28.5536 146.926 28.1898 146.039 27.826C145.175 27.4395 144.425 26.8825 143.788 26.155C143.175 25.4047 142.868 24.427 142.868 23.222C142.868 22.2671 143.152 21.3918 143.72 20.596C144.289 19.8003 145.096 19.175 146.142 18.7203C147.187 18.2428 148.381 18.0041 149.723 18.0041C151.791 18.0041 153.463 18.527 154.736 19.5729C156.009 20.6187 156.691 22.0511 156.782 23.87H153.679C153.61 22.8923 153.212 22.108 152.485 21.5168C151.78 20.9257 150.825 20.6301 149.62 20.6301C148.506 20.6301 147.619 20.8688 146.96 21.3463C146.301 21.8238 145.971 22.449 145.971 23.222C145.971 23.8359 146.164 24.3474 146.551 24.7567C146.96 25.1432 147.46 25.4615 148.051 25.7116C148.665 25.939 149.507 26.2004 150.575 26.496C151.917 26.8598 153.008 27.2235 153.849 27.5873C154.69 27.9284 155.406 28.4513 155.998 29.1561C156.611 29.8609 156.93 30.7817 156.953 31.9185C156.953 32.9416 156.668 33.8624 156.1 34.6809C155.532 35.4994 154.724 36.1474 153.679 36.6249C152.655 37.0796 151.473 37.3069 150.132 37.3069ZM167.95 37.3069C166.517 37.3069 165.233 37.0682 164.096 36.5908C162.959 36.0906 162.061 35.4085 161.402 34.5445C160.742 33.6578 160.379 32.6461 160.31 31.5093H163.516C163.607 32.4414 164.039 33.2031 164.812 33.7942C165.608 34.3854 166.642 34.6809 167.916 34.6809C169.098 34.6809 170.03 34.4195 170.712 33.8965C171.394 33.3736 171.735 32.7143 171.735 31.9185C171.735 31.1 171.371 30.4975 170.644 30.111C169.916 29.7018 168.791 29.3039 167.268 28.9174C165.881 28.5536 164.744 28.1898 163.857 27.826C162.993 27.4395 162.243 26.8825 161.606 26.155C160.993 25.4047 160.686 24.427 160.686 23.222C160.686 22.2671 160.97 21.3918 161.538 20.596C162.107 19.8003 162.914 19.175 163.96 18.7203C165.005 18.2428 166.199 18.0041 167.54 18.0041C169.609 18.0041 171.281 18.527 172.554 19.5729C173.827 20.6187 174.509 22.0511 174.6 23.87H171.497C171.428 22.8923 171.03 22.108 170.303 21.5168C169.598 20.9257 168.643 20.6301 167.438 20.6301C166.324 20.6301 165.437 20.8688 164.778 21.3463C164.119 21.8238 163.789 22.449 163.789 23.222C163.789 23.8359 163.982 24.3474 164.369 24.7567C164.778 25.1432 165.278 25.4615 165.869 25.7116C166.483 25.939 167.324 26.2004 168.393 26.496C169.734 26.8598 170.826 27.2235 171.667 27.5873C172.508 27.9284 173.224 28.4513 173.816 29.1561C174.429 29.8609 174.748 30.7817 174.771 31.9185C174.771 32.9416 174.486 33.8624 173.918 34.6809C173.35 35.4994 172.542 36.1474 171.497 36.6249C170.473 37.0796 169.291 37.3069 167.95 37.3069ZM204.047 18.311L198.216 37H195.01L190.508 22.1648L186.006 37H182.801L176.935 18.311H180.106L184.404 33.9989L189.042 18.311H192.213L196.749 34.033L200.978 18.311H204.047ZM215.278 37.3069C213.528 37.3069 211.936 36.9091 210.504 36.1133C209.094 35.3175 207.98 34.1921 207.162 32.737C206.366 31.2592 205.968 29.554 205.968 27.6214C205.968 25.7116 206.377 24.0291 207.196 22.574C208.037 21.0962 209.174 19.9708 210.606 19.1978C212.038 18.402 213.641 18.0041 215.415 18.0041C217.188 18.0041 218.791 18.402 220.223 19.1978C221.656 19.9708 222.781 21.0848 223.6 22.5399C224.441 23.995 224.861 25.6889 224.861 27.6214C224.861 29.554 224.429 31.2592 223.565 32.737C222.724 34.1921 221.576 35.3175 220.121 36.1133C218.666 36.9091 217.052 37.3069 215.278 37.3069ZM215.278 34.5786C216.392 34.5786 217.438 34.3172 218.416 33.7942C219.393 33.2713 220.178 32.4869 220.769 31.4411C221.383 30.3952 221.69 29.122 221.69 27.6214C221.69 26.1208 221.394 24.8476 220.803 23.8018C220.212 22.7559 219.439 21.9829 218.484 21.4827C217.529 20.9598 216.495 20.6983 215.381 20.6983C214.244 20.6983 213.198 20.9598 212.243 21.4827C211.311 21.9829 210.561 22.7559 209.992 23.8018C209.424 24.8476 209.14 26.1208 209.14 27.6214C209.14 29.1447 209.412 30.4293 209.958 31.4752C210.526 32.521 211.277 33.3054 212.209 33.8283C213.141 34.3285 214.164 34.5786 215.278 34.5786ZM232.045 21.3463C232.591 20.2777 233.364 19.4478 234.364 18.8567C235.388 18.2656 236.627 17.97 238.082 17.97V21.1758H237.263C233.785 21.1758 232.045 23.0629 232.045 26.837V37H228.942V18.311H232.045V21.3463ZM240.505 27.5873C240.505 25.6775 240.891 24.0064 241.664 22.574C242.437 21.1189 243.495 19.9935 244.836 19.1978C246.2 18.402 247.723 18.0041 249.406 18.0041C250.861 18.0041 252.214 18.3452 253.464 19.0272C254.715 19.6866 255.67 20.5619 256.329 21.6532V11.7631H259.467V37H256.329V33.4873C255.715 34.6014 254.806 35.5222 253.601 36.2497C252.396 36.9545 250.986 37.3069 249.372 37.3069C247.712 37.3069 246.2 36.8977 244.836 36.0792C243.495 35.2607 242.437 34.1125 241.664 32.6347C240.891 31.1569 240.505 29.4744 240.505 27.5873ZM256.329 27.6214C256.329 26.2118 256.045 24.9841 255.476 23.9382C254.908 22.8923 254.135 22.0966 253.157 21.5509C252.202 20.9825 251.145 20.6983 249.986 20.6983C248.826 20.6983 247.769 20.9712 246.814 21.5168C245.859 22.0625 245.097 22.8582 244.529 23.9041C243.961 24.9499 243.676 26.1777 243.676 27.5873C243.676 29.0197 243.961 30.2702 244.529 31.3387C245.097 32.3846 245.859 33.1917 246.814 33.7601C247.769 34.3058 248.826 34.5786 249.986 34.5786C251.145 34.5786 252.202 34.3058 253.157 33.7601C254.135 33.1917 254.908 32.3846 255.476 31.3387C256.045 30.2702 256.329 29.031 256.329 27.6214ZM267.815 11.7631V37H264.711V11.7631H267.815ZM290.156 26.9393C290.156 27.5305 290.122 28.1557 290.053 28.8151H275.116C275.23 30.6567 275.855 32.1004 276.992 33.1463C278.151 34.1694 279.549 34.6809 281.186 34.6809C282.528 34.6809 283.642 34.374 284.529 33.7601C285.438 33.1235 286.075 32.2823 286.438 31.2364H289.781C289.28 33.0326 288.28 34.499 286.78 35.6358C285.279 36.7499 283.415 37.3069 281.186 37.3069C279.413 37.3069 277.822 36.9091 276.412 36.1133C275.025 35.3175 273.934 34.1921 273.138 32.737C272.342 31.2592 271.944 29.554 271.944 27.6214C271.944 25.6889 272.331 23.995 273.104 22.5399C273.877 21.0848 274.957 19.9708 276.344 19.1978C277.753 18.402 279.368 18.0041 281.186 18.0041C282.96 18.0041 284.529 18.3906 285.893 19.1636C287.257 19.9367 288.303 21.0053 289.03 22.3694C289.781 23.7108 290.156 25.2341 290.156 26.9393ZM286.95 26.2914C286.95 25.1091 286.689 24.0973 286.166 23.2561C285.643 22.3922 284.927 21.7442 284.017 21.3122C283.13 20.8575 282.141 20.6301 281.05 20.6301C279.481 20.6301 278.14 21.1303 277.026 22.1307C275.934 23.1311 275.309 24.518 275.15 26.2914H286.95ZM300.868 37.3069C299.436 37.3069 298.151 37.0682 297.015 36.5908C295.878 36.0906 294.98 35.4085 294.32 34.5445C293.661 33.6578 293.297 32.6461 293.229 31.5093H296.435C296.526 32.4414 296.958 33.2031 297.731 33.7942C298.527 34.3854 299.561 34.6809 300.834 34.6809C302.017 34.6809 302.949 34.4195 303.631 33.8965C304.313 33.3736 304.654 32.7143 304.654 31.9185C304.654 31.1 304.29 30.4975 303.563 30.111C302.835 29.7018 301.71 29.3039 300.186 28.9174C298.799 28.5536 297.663 28.1898 296.776 27.826C295.912 27.4395 295.162 26.8825 294.525 26.155C293.911 25.4047 293.604 24.427 293.604 23.222C293.604 22.2671 293.888 21.3918 294.457 20.596C295.025 19.8003 295.832 19.175 296.878 18.7203C297.924 18.2428 299.118 18.0041 300.459 18.0041C302.528 18.0041 304.199 18.527 305.472 19.5729C306.746 20.6187 307.428 22.0511 307.519 23.87H304.415C304.347 22.8923 303.949 22.108 303.222 21.5168C302.517 20.9257 301.562 20.6301 300.357 20.6301C299.243 20.6301 298.356 20.8688 297.697 21.3463C297.037 21.8238 296.708 22.449 296.708 23.222C296.708 23.8359 296.901 24.3474 297.288 24.7567C297.697 25.1432 298.197 25.4615 298.788 25.7116C299.402 25.939 300.243 26.2004 301.312 26.496C302.653 26.8598 303.745 27.2235 304.586 27.5873C305.427 27.9284 306.143 28.4513 306.734 29.1561C307.348 29.8609 307.666 30.7817 307.689 31.9185C307.689 32.9416 307.405 33.8624 306.837 34.6809C306.268 35.4994 305.461 36.1474 304.415 36.6249C303.392 37.0796 302.21 37.3069 300.868 37.3069ZM318.686 37.3069C317.254 37.3069 315.969 37.0682 314.833 36.5908C313.696 36.0906 312.798 35.4085 312.138 34.5445C311.479 33.6578 311.115 32.6461 311.047 31.5093H314.253C314.344 32.4414 314.776 33.2031 315.549 33.7942C316.345 34.3854 317.379 34.6809 318.652 34.6809C319.835 34.6809 320.767 34.4195 321.449 33.8965C322.131 33.3736 322.472 32.7143 322.472 31.9185C322.472 31.1 322.108 30.4975 321.381 30.111C320.653 29.7018 319.528 29.3039 318.004 28.9174C316.617 28.5536 315.481 28.1898 314.594 27.826C313.73 27.4395 312.98 26.8825 312.343 26.155C311.729 25.4047 311.422 24.427 311.422 23.222C311.422 22.2671 311.706 21.3918 312.275 20.596C312.843 19.8003 313.65 19.175 314.696 18.7203C315.742 18.2428 316.936 18.0041 318.277 18.0041C320.346 18.0041 322.017 18.527 323.29 19.5729C324.564 20.6187 325.246 22.0511 325.337 23.87H322.233C322.165 22.8923 321.767 22.108 321.04 21.5168C320.335 20.9257 319.38 20.6301 318.175 20.6301C317.061 20.6301 316.174 20.8688 315.515 21.3463C314.855 21.8238 314.526 22.449 314.526 23.222C314.526 23.8359 314.719 24.3474 315.105 24.7567C315.515 25.1432 316.015 25.4615 316.606 25.7116C317.22 25.939 318.061 26.2004 319.13 26.496C320.471 26.8598 321.563 27.2235 322.404 27.5873C323.245 27.9284 323.961 28.4513 324.552 29.1561C325.166 29.8609 325.484 30.7817 325.507 31.9185C325.507 32.9416 325.223 33.8624 324.655 34.6809C324.086 35.4994 323.279 36.1474 322.233 36.6249C321.21 37.0796 320.028 37.3069 318.686 37.3069Z" fill="white"/>
</svg>
